<svg width="64" height="64" viewBox="0 0 64 64" fill="none" xmlns="http://www.w3.org/2000/svg">
<g clip-path="url(#clip0_883_184)">
<path d="M54 0H10C4.47715 0 0 4.47715 0 10V54C0 59.5228 4.47715 64 10 64H54C59.5228 64 64 59.5228 64 54V10C64 4.47715 59.5228 0 54 0Z" fill="#0D0D0D"/>
<mask id="mask0_883_184" style="mask-type:alpha" maskUnits="userSpaceOnUse" x="8" y="19" width="48" height="26">
<rect x="8" y="19.2" width="48" height="25" fill="#7AA2F7"/>
</mask>
<g mask="url(#mask0_883_184)">
<path d="M8.73992 44V19.18H24.1759V23.124H12.9219V29.754H23.2919V33.698H12.9899V44H8.73992ZM23.9926 44V39.886L31.7446 32.1C32.8326 30.9893 33.6373 29.992 34.1586 29.108C34.68 28.2013 34.9406 27.272 34.9406 26.32C34.9406 25.164 34.6233 24.2687 33.9886 23.634C33.354 22.9767 32.4926 22.648 31.4046 22.648C30.2033 22.648 29.2626 22.9993 28.5826 23.702C27.9026 24.382 27.5626 25.334 27.5626 26.558H23.3126C23.3353 24.9713 23.6753 23.6113 24.3326 22.478C25.0126 21.322 25.9646 20.4267 27.1886 19.792C28.4126 19.1573 29.8406 18.84 31.4726 18.84C33.0366 18.84 34.3966 19.1347 35.5526 19.724C36.7086 20.3133 37.604 21.1407 38.2386 22.206C38.8733 23.2713 39.1906 24.5407 39.1906 26.014C39.1906 27.5327 38.794 29.0173 38.0006 30.468C37.23 31.896 35.9833 33.4373 34.2606 35.092L29.0926 40.158H39.4966V44H23.9926ZM39.2114 44V19.18H46.8274C49.23 19.18 51.134 19.758 52.5394 20.914C53.9447 22.0473 54.6474 23.6 54.6474 25.572C54.6474 26.6827 54.398 27.646 53.8994 28.462C53.4007 29.278 52.7207 29.9127 51.8594 30.366C51.0207 30.8193 50.046 31.046 48.9354 31.046V30.91C50.1367 30.8873 51.202 31.114 52.1314 31.59C53.0834 32.0433 53.8314 32.7233 54.3754 33.63C54.942 34.5367 55.2254 35.636 55.2254 36.928C55.2254 38.356 54.8967 39.6027 54.2394 40.668C53.582 41.7333 52.6527 42.5607 51.4514 43.15C50.2727 43.7167 48.856 44 47.2014 44H39.2114ZM43.3594 40.464H46.9294C48.176 40.464 49.1507 40.1353 49.8534 39.478C50.5787 38.798 50.9414 37.88 50.9414 36.724C50.9414 35.568 50.5787 34.6387 49.8534 33.936C49.1507 33.2107 48.176 32.848 46.9294 32.848H43.3594V40.464ZM43.3594 29.414H46.7594C47.8927 29.414 48.7767 29.1193 49.4114 28.53C50.0687 27.918 50.3974 27.0907 50.3974 26.048C50.3974 25.0053 50.0687 24.1893 49.4114 23.6C48.7767 23.0107 47.8927 22.716 46.7594 22.716H43.3594V29.414Z" fill="#7AA2F7"/>
<path d="M23 19H42V23H37.25L31 22L27.75 23H23V19Z" fill="#7AA2F7"/>
<rect x="37" y="19" width="5" height="7" fill="#7AA2F7"/>
<rect x="11" y="39.8" width="15" height="4.2" fill="#7AA2F7"/>
</g>
</g>
<defs>
<clipPath id="clip0_883_184">
<rect width="64" height="64" fill="white"/>
</clipPath>
</defs>
</svg>
