<svg width="64" height="64" viewBox="0 0 64 64" fill="none" xmlns="http://www.w3.org/2000/svg">
<g clip-path="url(#clip0_886_245)">
<path d="M54 0H10C4.47715 0 0 4.47715 0 10V54C0 59.5228 4.47715 64 10 64H54C59.5228 64 64 59.5228 64 54V10C64 4.47715 59.5228 0 54 0Z" fill="#0D0D0D"/>
<path d="M21.3133 44.34C19.7039 44.34 18.3099 44.034 17.1313 43.422C15.9526 42.81 15.0346 41.9487 14.3773 40.838C13.7426 39.7273 13.4253 38.424 13.4253 36.928V26.252C13.4253 24.756 13.7426 23.4527 14.3773 22.342C15.0346 21.2313 15.9526 20.37 17.1313 19.758C18.3099 19.146 19.7039 18.84 21.3133 18.84C22.9453 18.84 24.3393 19.146 25.4953 19.758C26.6739 20.37 27.5806 21.2313 28.2153 22.342C28.8726 23.4527 29.2013 24.756 29.2013 26.252V36.928C29.2013 38.424 28.8726 39.7273 28.2153 40.838C27.5806 41.9487 26.6739 42.81 25.4953 43.422C24.3166 44.034 22.9226 44.34 21.3133 44.34ZM21.3133 40.668C22.4919 40.668 23.4326 40.328 24.1353 39.648C24.8379 38.968 25.1893 38.0613 25.1893 36.928V26.252C25.1893 25.1187 24.8379 24.212 24.1353 23.532C23.4326 22.852 22.4919 22.512 21.3133 22.512C20.1346 22.512 19.1939 22.852 18.4913 23.532C17.7886 24.212 17.4373 25.1187 17.4373 26.252V36.928C17.4373 38.0613 17.7886 38.968 18.4913 39.648C19.1939 40.328 20.1346 40.668 21.3133 40.668ZM21.3133 33.8C20.6559 33.8 20.1119 33.5847 19.6813 33.154C19.2733 32.7233 19.0693 32.168 19.0693 31.488C19.0693 30.808 19.2733 30.264 19.6813 29.856C20.0893 29.448 20.6333 29.244 21.3133 29.244C21.9933 29.244 22.5373 29.448 22.9453 29.856C23.3533 30.264 23.5573 30.808 23.5573 31.488C23.5573 32.168 23.3533 32.7233 22.9453 33.154C22.5373 33.5847 21.9933 33.8 21.3133 33.8ZM32.724 44L39.252 34.344L33.166 25.3H37.96L40.85 29.89C41.0313 30.162 41.19 30.468 41.326 30.808C41.4847 31.148 41.6093 31.42 41.7 31.624C41.7907 31.42 41.9153 31.148 42.074 30.808C42.2327 30.468 42.3913 30.162 42.55 29.89L45.474 25.3H50.268L44.182 34.344L50.676 44H45.848L42.618 38.866C42.4367 38.5713 42.2667 38.254 42.108 37.914C41.9493 37.574 41.8133 37.302 41.7 37.098C41.6093 37.302 41.4847 37.574 41.326 37.914C41.1673 38.254 40.9973 38.5713 40.816 38.866L37.518 44H32.724Z" fill="#7AA2F7"/>
</g>
<defs>
<clipPath id="clip0_886_245">
<rect width="64" height="64" fill="white"/>
</clipPath>
</defs>
</svg>
